<svg id="Layer_1" data-name="Layer 1" xmlns="http://www.w3.org/2000/svg" viewBox="0 0 1000 1000"><defs><style>.cls-1{fill:#8cc63f;}.cls-2{fill:#006837;}</style></defs><polygon class="cls-1" points="188.89 540.19 144.92 540.19 303.27 381.16 438.26 517.17 393.95 517.17 302.58 426.84 216.71 515.12 216.71 656.29 888.22 656.29 888.22 689.26 188.2 689.26 188.89 540.19"/><rect class="cls-1" x="266.51" y="531.6" width="31.6" height="33.66"/><rect class="cls-1" x="308.42" y="531.6" width="31.6" height="33.66"/><rect class="cls-1" x="308.42" y="573.51" width="31.6" height="33.66"/><rect class="cls-1" x="266.51" y="573.51" width="31.6" height="33.66"/><polygon class="cls-2" points="129.1 657.31 125 468.74 235.09 355.39 282.4 402.11 303.27 381.16 233.48 310.74 40.62 505.92 94.69 505.92 93.85 689.26 954.78 689.26 954.78 648.71 129.1 657.31"/><polygon class="cls-2" points="127.64 338.64 175.38 338.64 175.38 358.18 127.64 406.65 127.64 338.64"/><path class="cls-2" d="M375.59,621.88H364.71V549.8h10.88Z"/><path class="cls-2" d="M396.18,621.88H385.31V549.74h15.6L411,601.57l9.73-51.83h15v72.14H424.89V576.55l-9.44,45.33h-8.74l-10.53-45.21Z"/><path class="cls-2" d="M456.35,621.88H445.48V549.74h15.6l10.14,51.83,9.72-51.83h15v72.14H485.06V576.55l-9.43,45.33h-8.75l-10.53-45.21Z"/><path class="cls-2" d="M522.8,622.69a17.09,17.09,0,0,1-17.2-17.14V549.8h10.64v55.63a5.93,5.93,0,0,0,1.84,4.4,6.09,6.09,0,0,0,4.43,1.81,6.18,6.18,0,0,0,6.21-6.21V549.8h11.34v55.75A16.39,16.39,0,0,1,535,617.74,16.84,16.84,0,0,1,522.8,622.69Z"/><path class="cls-2" d="M560.31,560.73H548.74V549.8h33.94v10.93h-11.5v61.15H560.31Z"/><path class="cls-2" d="M595.5,605.32l-2.64,16.56H581.53l12.26-72.08h15l12.08,72.08H609.39l-2.54-16.56Zm5.71-39-4,28.42h8.06Z"/><path class="cls-2" d="M630,621.88V549.74h16.28a20.66,20.66,0,0,1,11.62,3.4,15.75,15.75,0,0,1,6.33,8.91,25.16,25.16,0,0,1,1,7.66q0,7.24-3.86,11.62a11,11,0,0,1-3.79,2.81,12.73,12.73,0,0,1,6.15,5.47,21.37,21.37,0,0,1,2.48,7.13,29.4,29.4,0,0,1,.4,5A24,24,0,0,1,664,613.37a15.44,15.44,0,0,1-5.7,6,15.65,15.65,0,0,1-8.22,2.53Zm11.74-42.68h4.54q5.07,0,6.79-5a14.16,14.16,0,0,0,.63-4.54q0-4.5-2.18-6.79a6.9,6.9,0,0,0-5.24-2.13h-4.54Zm0,31.93h4.54q5.52,0,7.65-5.7a12.47,12.47,0,0,0,.75-4.49c0-4-.77-7-2.3-8.8a7.41,7.41,0,0,0-6.1-2.53h-4.54Z"/><path class="cls-2" d="M705.68,621.88H676.05V549.8h10.88v61.27h18.75Z"/><path class="cls-2" d="M713.16,621.88V549.74h31v10.93H724v19.68H738.7v10.93H724V611h20.08v10.93Z"/><path class="cls-1" d="M785.58,560.73H774V549.8H808v10.93H796.45v61.15H785.58Z"/><path class="cls-1" d="M827.58,621.88H816.7V549.8h10.88Z"/><path class="cls-1" d="M847.88,560.73H836.32V549.8h33.94v10.93h-11.5v61.15H847.88Z"/><path class="cls-1" d="M908.63,621.88H879V549.8h10.87v61.27h18.75Z"/><path class="cls-1" d="M916.11,621.88V549.74h30.95v10.93H927v19.68h14.67v10.93H927V611h20.08v10.93Z"/><rect class="cls-1" x="394.21" y="480.07" width="565.17" height="37.36"/></svg>